<mxfile host="drawio-plugin" modified="2024-03-23T12:12:51.504Z" agent="5.0 (Windows NT 10.0; Win64; x64) AppleWebKit/537.36 (KHTML, like Gecko) Chrome/111.0.0.0 Safari/537.36" etag="sfv4BvbMZCDpuUtryhP_" version="20.5.3" type="embed"><diagram name="Page-1" id="2TBUqehgrafxdQ94M4e3"><mxGraphModel dx="569" dy="1110" grid="1" gridSize="10" guides="1" tooltips="1" connect="1" arrows="1" fold="1" page="1" pageScale="1" pageWidth="827" pageHeight="1169" math="0" shadow="0"><root><mxCell id="0"/><mxCell id="1" parent="0"/><mxCell id="NVZ5w8M3Ka8kTGPG0Di4-30" style="edgeStyle=orthogonalEdgeStyle;rounded=0;orthogonalLoop=1;jettySize=auto;html=1;startArrow=ERzeroToMany;startFill=0;endArrow=ERmandOne;endFill=0;endSize=10;startSize=10;" parent="1" source="NVZ5w8M3Ka8kTGPG0Di4-2" target="NVZ5w8M3Ka8kTGPG0Di4-7" edge="1"><mxGeometry relative="1" as="geometry"/></mxCell><mxCell id="NVZ5w8M3Ka8kTGPG0Di4-33" style="edgeStyle=orthogonalEdgeStyle;rounded=0;orthogonalLoop=1;jettySize=auto;html=1;startArrow=ERmandOne;startFill=0;endArrow=ERzeroToMany;endFill=0;endSize=10;startSize=10;" parent="1" source="NVZ5w8M3Ka8kTGPG0Di4-2" target="NVZ5w8M3Ka8kTGPG0Di4-23" edge="1"><mxGeometry relative="1" as="geometry"/></mxCell><mxCell id="NVZ5w8M3Ka8kTGPG0Di4-2" value="User" style="swimlane;fontStyle=0;childLayout=stackLayout;horizontal=1;startSize=26;fillColor=none;horizontalStack=0;resizeParent=1;resizeParentMax=0;resizeLast=0;collapsible=1;marginBottom=0;whiteSpace=wrap;html=1;" parent="1" vertex="1"><mxGeometry x="250" y="410" width="140" height="104" as="geometry"><mxRectangle x="290" y="370" width="70" height="30" as="alternateBounds"/></mxGeometry></mxCell><mxCell id="NVZ5w8M3Ka8kTGPG0Di4-3" value="+ user_id: u32" style="text;strokeColor=none;fillColor=none;align=left;verticalAlign=top;spacingLeft=4;spacingRight=4;overflow=hidden;rotatable=0;points=[[0,0.5],[1,0.5]];portConstraint=eastwest;whiteSpace=wrap;html=1;" parent="NVZ5w8M3Ka8kTGPG0Di4-2" vertex="1"><mxGeometry y="26" width="140" height="26" as="geometry"/></mxCell><mxCell id="NVZ5w8M3Ka8kTGPG0Di4-4" value="+ first_name: string" style="text;strokeColor=none;fillColor=none;align=left;verticalAlign=top;spacingLeft=4;spacingRight=4;overflow=hidden;rotatable=0;points=[[0,0.5],[1,0.5]];portConstraint=eastwest;whiteSpace=wrap;html=1;" parent="NVZ5w8M3Ka8kTGPG0Di4-2" vertex="1"><mxGeometry y="52" width="140" height="26" as="geometry"/></mxCell><mxCell id="NVZ5w8M3Ka8kTGPG0Di4-5" value="+ last_name: string" style="text;strokeColor=none;fillColor=none;align=left;verticalAlign=top;spacingLeft=4;spacingRight=4;overflow=hidden;rotatable=0;points=[[0,0.5],[1,0.5]];portConstraint=eastwest;whiteSpace=wrap;html=1;" parent="NVZ5w8M3Ka8kTGPG0Di4-2" vertex="1"><mxGeometry y="78" width="140" height="26" as="geometry"/></mxCell><mxCell id="NVZ5w8M3Ka8kTGPG0Di4-31" style="edgeStyle=orthogonalEdgeStyle;rounded=0;orthogonalLoop=1;jettySize=auto;html=1;startArrow=ERmandOne;startFill=0;endArrow=ERzeroToMany;endFill=0;endSize=10;startSize=10;" parent="1" source="NVZ5w8M3Ka8kTGPG0Di4-7" target="NVZ5w8M3Ka8kTGPG0Di4-12" edge="1"><mxGeometry relative="1" as="geometry"/></mxCell><mxCell id="NVZ5w8M3Ka8kTGPG0Di4-7" value="City" style="swimlane;fontStyle=0;childLayout=stackLayout;horizontal=1;startSize=26;fillColor=none;horizontalStack=0;resizeParent=1;resizeParentMax=0;resizeLast=0;collapsible=1;marginBottom=0;whiteSpace=wrap;html=1;" parent="1" vertex="1"><mxGeometry x="560" y="423" width="140" height="78" as="geometry"><mxRectangle x="290" y="370" width="70" height="30" as="alternateBounds"/></mxGeometry></mxCell><mxCell id="NVZ5w8M3Ka8kTGPG0Di4-8" value="+ city_id: u32" style="text;strokeColor=none;fillColor=none;align=left;verticalAlign=top;spacingLeft=4;spacingRight=4;overflow=hidden;rotatable=0;points=[[0,0.5],[1,0.5]];portConstraint=eastwest;whiteSpace=wrap;html=1;" parent="NVZ5w8M3Ka8kTGPG0Di4-7" vertex="1"><mxGeometry y="26" width="140" height="26" as="geometry"/></mxCell><mxCell id="NVZ5w8M3Ka8kTGPG0Di4-9" value="+ city_name: string" style="text;strokeColor=none;fillColor=none;align=left;verticalAlign=top;spacingLeft=4;spacingRight=4;overflow=hidden;rotatable=0;points=[[0,0.5],[1,0.5]];portConstraint=eastwest;whiteSpace=wrap;html=1;" parent="NVZ5w8M3Ka8kTGPG0Di4-7" vertex="1"><mxGeometry y="52" width="140" height="26" as="geometry"/></mxCell><mxCell id="NVZ5w8M3Ka8kTGPG0Di4-32" style="edgeStyle=orthogonalEdgeStyle;rounded=0;orthogonalLoop=1;jettySize=auto;html=1;startArrow=ERmandOne;startFill=0;endArrow=ERzeroToMany;endFill=0;" parent="1" source="NVZ5w8M3Ka8kTGPG0Di4-12" target="NVZ5w8M3Ka8kTGPG0Di4-16" edge="1"><mxGeometry relative="1" as="geometry"/></mxCell><mxCell id="NVZ5w8M3Ka8kTGPG0Di4-12" value="Producer" style="swimlane;fontStyle=0;childLayout=stackLayout;horizontal=1;startSize=26;fillColor=none;horizontalStack=0;resizeParent=1;resizeParentMax=0;resizeLast=0;collapsible=1;marginBottom=0;whiteSpace=wrap;html=1;" parent="1" vertex="1"><mxGeometry x="540" y="620" width="180" height="104" as="geometry"/></mxCell><mxCell id="NVZ5w8M3Ka8kTGPG0Di4-13" value="+ producer_id: u32" style="text;strokeColor=none;fillColor=none;align=left;verticalAlign=top;spacingLeft=4;spacingRight=4;overflow=hidden;rotatable=0;points=[[0,0.5],[1,0.5]];portConstraint=eastwest;whiteSpace=wrap;html=1;" parent="NVZ5w8M3Ka8kTGPG0Di4-12" vertex="1"><mxGeometry y="26" width="180" height="26" as="geometry"/></mxCell><mxCell id="NVZ5w8M3Ka8kTGPG0Di4-14" value="+ producer_name: string" style="text;strokeColor=none;fillColor=none;align=left;verticalAlign=top;spacingLeft=4;spacingRight=4;overflow=hidden;rotatable=0;points=[[0,0.5],[1,0.5]];portConstraint=eastwest;whiteSpace=wrap;html=1;" parent="NVZ5w8M3Ka8kTGPG0Di4-12" vertex="1"><mxGeometry y="52" width="180" height="26" as="geometry"/></mxCell><mxCell id="NVZ5w8M3Ka8kTGPG0Di4-22" value="+ net_worth: decimal(20, 6)" style="text;strokeColor=none;fillColor=none;align=left;verticalAlign=top;spacingLeft=4;spacingRight=4;overflow=hidden;rotatable=0;points=[[0,0.5],[1,0.5]];portConstraint=eastwest;whiteSpace=wrap;html=1;" parent="NVZ5w8M3Ka8kTGPG0Di4-12" vertex="1"><mxGeometry y="78" width="180" height="26" as="geometry"/></mxCell><mxCell id="NVZ5w8M3Ka8kTGPG0Di4-16" value="Item" style="swimlane;fontStyle=0;childLayout=stackLayout;horizontal=1;startSize=26;fillColor=none;horizontalStack=0;resizeParent=1;resizeParentMax=0;resizeLast=0;collapsible=1;marginBottom=0;whiteSpace=wrap;html=1;" parent="1" vertex="1"><mxGeometry x="560" y="840" width="140" height="104" as="geometry"/></mxCell><mxCell id="NVZ5w8M3Ka8kTGPG0Di4-17" value="+ item_id: u32" style="text;strokeColor=none;fillColor=none;align=left;verticalAlign=top;spacingLeft=4;spacingRight=4;overflow=hidden;rotatable=0;points=[[0,0.5],[1,0.5]];portConstraint=eastwest;whiteSpace=wrap;html=1;" parent="NVZ5w8M3Ka8kTGPG0Di4-16" vertex="1"><mxGeometry y="26" width="140" height="26" as="geometry"/></mxCell><mxCell id="NVZ5w8M3Ka8kTGPG0Di4-18" value="+ item_name: string" style="text;strokeColor=none;fillColor=none;align=left;verticalAlign=top;spacingLeft=4;spacingRight=4;overflow=hidden;rotatable=0;points=[[0,0.5],[1,0.5]];portConstraint=eastwest;whiteSpace=wrap;html=1;" parent="NVZ5w8M3Ka8kTGPG0Di4-16" vertex="1"><mxGeometry y="52" width="140" height="26" as="geometry"/></mxCell><mxCell id="NVZ5w8M3Ka8kTGPG0Di4-21" value="+ price: decimal(10, 2)" style="text;strokeColor=none;fillColor=none;align=left;verticalAlign=top;spacingLeft=4;spacingRight=4;overflow=hidden;rotatable=0;points=[[0,0.5],[1,0.5]];portConstraint=eastwest;whiteSpace=wrap;html=1;" parent="NVZ5w8M3Ka8kTGPG0Di4-16" vertex="1"><mxGeometry y="78" width="140" height="26" as="geometry"/></mxCell><mxCell id="NVZ5w8M3Ka8kTGPG0Di4-34" style="edgeStyle=orthogonalEdgeStyle;rounded=0;orthogonalLoop=1;jettySize=auto;html=1;startArrow=ERzeroToMany;startFill=0;endArrow=ERmandOne;endFill=0;endSize=10;startSize=10;" parent="1" source="NVZ5w8M3Ka8kTGPG0Di4-23" target="NVZ5w8M3Ka8kTGPG0Di4-16" edge="1"><mxGeometry relative="1" as="geometry"><Array as="points"><mxPoint x="320" y="900"/></Array></mxGeometry></mxCell><mxCell id="NVZ5w8M3Ka8kTGPG0Di4-23" value="Transaction" style="swimlane;fontStyle=0;childLayout=stackLayout;horizontal=1;startSize=26;fillColor=none;horizontalStack=0;resizeParent=1;resizeParentMax=0;resizeLast=0;collapsible=1;marginBottom=0;whiteSpace=wrap;html=1;" parent="1" vertex="1"><mxGeometry x="200" y="620" width="240" height="104" as="geometry"/></mxCell><mxCell id="NVZ5w8M3Ka8kTGPG0Di4-24" value="+ transaction_id: u64" style="text;strokeColor=none;fillColor=none;align=left;verticalAlign=top;spacingLeft=4;spacingRight=4;overflow=hidden;rotatable=0;points=[[0,0.5],[1,0.5]];portConstraint=eastwest;whiteSpace=wrap;html=1;" parent="NVZ5w8M3Ka8kTGPG0Di4-23" vertex="1"><mxGeometry y="26" width="240" height="26" as="geometry"/></mxCell><mxCell id="NVZ5w8M3Ka8kTGPG0Di4-29" value="+ item_count: u32" style="text;strokeColor=none;fillColor=none;align=left;verticalAlign=top;spacingLeft=4;spacingRight=4;overflow=hidden;rotatable=0;points=[[0,0.5],[1,0.5]];portConstraint=eastwest;whiteSpace=wrap;html=1;" parent="NVZ5w8M3Ka8kTGPG0Di4-23" vertex="1"><mxGeometry y="52" width="240" height="26" as="geometry"/></mxCell><mxCell id="NVZ5w8M3Ka8kTGPG0Di4-27" value="+ transaction_datetime: datetime" style="text;strokeColor=none;fillColor=none;align=left;verticalAlign=top;spacingLeft=4;spacingRight=4;overflow=hidden;rotatable=0;points=[[0,0.5],[1,0.5]];portConstraint=eastwest;whiteSpace=wrap;html=1;" parent="NVZ5w8M3Ka8kTGPG0Di4-23" vertex="1"><mxGeometry y="78" width="240" height="26" as="geometry"/></mxCell></root></mxGraphModel></diagram></mxfile>